<svg width="1600" height="900" viewBox="0 0 1600 900" fill="none" xmlns="http://www.w3.org/2000/svg">
  <rect width="1600" height="900" fill="#F7F4EF"/>
  <rect width="1600" height="900" fill="url(#sky)"/>
  <path d="M0 610C171 557 287 525 448 528C659 532 734 646 934 648C1112 650 1302 565 1600 490V900H0V610Z" fill="url(#sea)"/>
  <path d="M1028 189L1188 138L1352 224L1352 580L1028 580L1028 189Z" fill="#F4F7F6"/>
  <path d="M1086 252H1297V580H1086V252Z" fill="#DDEBE7"/>
  <path d="M998 302H1132V580H998V302Z" fill="#EEF3F1"/>
  <path d="M1132 286H1297V580H1132V286Z" fill="#F9FBFA"/>
  <path d="M1148 308H1277V385H1148V308Z" fill="#BCD3CE"/>
  <path d="M1148 401H1277V475H1148V401Z" fill="#BCD3CE"/>
  <path d="M1041 345H1100V580H1041V345Z" fill="#C8D8D3"/>
  <path d="M960 580H1396V612H960V580Z" fill="#7B9A98"/>
  <rect x="0" y="0" width="1600" height="900" fill="url(#glow)" fill-opacity="0.55"/>
  <circle cx="1260" cy="148" r="63" fill="#FFF9EE" fill-opacity="0.78"/>
  <path d="M0 707C210 661 309 650 468 670C694 697 833 775 1028 767C1224 759 1369 706 1600 643V900H0V707Z" fill="#8EA8A6" fill-opacity="0.42"/>
  <defs>
    <linearGradient id="sky" x1="222" y1="69" x2="1337" y2="813" gradientUnits="userSpaceOnUse">
      <stop stop-color="#F9F5EE"/>
      <stop offset="0.42" stop-color="#DCECEA"/>
      <stop offset="1" stop-color="#A5BFBC"/>
    </linearGradient>
    <linearGradient id="sea" x1="800" y1="490" x2="800" y2="900" gradientUnits="userSpaceOnUse">
      <stop stop-color="#7D9C9A"/>
      <stop offset="1" stop-color="#476564"/>
    </linearGradient>
    <radialGradient id="glow" cx="0" cy="0" r="1" gradientUnits="userSpaceOnUse" gradientTransform="translate(279 161) rotate(20.1066) scale(668.159 437.655)">
      <stop stop-color="#FFF7EA"/>
      <stop offset="1" stop-color="#FFF7EA" stop-opacity="0"/>
    </radialGradient>
  </defs>
</svg>
