<svg width="720" height="720" viewBox="0 0 720 720" fill="none" xmlns="http://www.w3.org/2000/svg">
  <rect width="720" height="720" rx="120" fill="#FFFFFF"/>
  <circle cx="360" cy="366" r="252" fill="#F7FCFA"/>
  <mask id="circle-mask" maskUnits="userSpaceOnUse" x="108" y="114" width="504" height="504">
    <circle cx="360" cy="366" r="252" fill="#FFFFFF"/>
  </mask>
  <g mask="url(#circle-mask)" opacity="0.92">
    <path d="M165 126L330 600" stroke="#DDF3EE" stroke-width="26" stroke-linecap="round"/>
    <path d="M245 106L410 580" stroke="#DDF3EE" stroke-width="26" stroke-linecap="round"/>
    <path d="M325 96L490 570" stroke="#DDF3EE" stroke-width="26" stroke-linecap="round"/>
    <path d="M405 106L570 580" stroke="#DDF3EE" stroke-width="26" stroke-linecap="round"/>
    <path d="M485 126L650 600" stroke="#DDF3EE" stroke-width="26" stroke-linecap="round"/>
  </g>
  <text x="84" y="410" fill="#7E969A" font-size="186" font-family="Brush Script MT, Snell Roundhand, cursive" font-style="italic">
    Habitam
  </text>
  <path d="M120 423C156 344 213 274 289 212" stroke="#7E969A" stroke-width="10" stroke-linecap="round"/>
  <path d="M221 515L356 201" stroke="#7E969A" stroke-width="8" stroke-linecap="round"/>
  <path d="M290 562L438 182" stroke="#7E969A" stroke-width="8" stroke-linecap="round"/>
  <path d="M170 488H470" stroke="#7E969A" stroke-width="9" stroke-linecap="round"/>
  <text x="287" y="525" fill="#7E969A" font-size="58" letter-spacing="12" font-family="Avenir Next, Helvetica Neue, Arial, sans-serif" font-weight="500">
    PALMA
  </text>
  <text x="579" y="180" fill="#7E969A" font-size="90" font-family="Avenir Next, Helvetica Neue, Arial, sans-serif">
    ®
  </text>
</svg>
